<svg xmlns="http://www.w3.org/2000/svg" width="403.83" height="55.52" viewBox="0 0 403.83 55.52"><polygon points="3.39 39.04 7.19 35.08 15.44 45.23 19.6 45.23 9.41 32.76 19.09 22.67 14.83 22.67 3.39 34.66 3.39 22.67 0 22.67 0 45.23 3.39 45.23 3.39 39.04" fill="#111827"/><polygon points="39.02 42.14 26.19 42.14 26.19 35.4 38.08 35.4 38.08 32.34 26.19 32.34 26.19 25.76 38.89 25.76 38.89 22.67 22.8 22.67 22.8 45.23 39.02 45.23 39.02 42.14" fill="#111827"/><polygon points="50.44 45.23 53.82 45.23 53.82 36.63 62.91 22.67 59.07 22.67 52.14 33.44 45.25 22.67 41.38 22.67 50.44 36.66 50.44 45.23" fill="#111827"/><path d="M73.17,42.54c-3.23,0-5.26-1.1-5.55-3.22H64.3c.39,4,3.77,6.25,8.87,6.25,4.89,0,8.41-2.26,8.41-6.67,0-3.23-1.74-5.19-6-6.13l-2.9-.64c-3-.64-4.45-1.58-4.45-3.48,0-2.19,1.77-3.26,4.58-3.26s4.48,1,4.8,2.81H80.9c-.42-3.58-3.29-5.84-8.09-5.84-5,0-8,2.36-8,6.32,0,3.42,2.2,5.45,6.55,6.38l2.9.65c2.8.61,3.93,1.71,3.93,3.35C78.16,41.26,76.16,42.54,73.17,42.54Z" fill="#111827"/><polygon points="90.84 45.23 94.22 45.23 94.22 25.8 101.58 25.8 101.58 22.67 83.49 22.67 83.49 25.8 90.84 25.8 90.84 45.23" fill="#111827"/><path d="M115.21,45.54a11.64,11.64,0,1,0-.18,0Zm0-20A8.42,8.42,0,1,1,107,34.17V34a8.15,8.15,0,0,1,7.85-8.42Z" fill="#111827"/><polygon points="135.05 28.08 148.11 45.26 151.23 45.26 151.23 22.67 147.91 22.67 147.91 39.88 134.86 22.64 131.7 22.64 131.7 45.23 135.05 45.23 135.05 28.08" fill="#111827"/><polygon points="173.07 42.14 160.24 42.14 160.24 35.4 172.13 35.4 172.13 32.34 160.24 32.34 160.24 25.76 172.94 25.76 172.94 22.67 156.86 22.67 156.86 45.23 173.07 45.23 173.07 42.14" fill="#111827"/><path d="M238.92,42.48c-3.24,0-5.28-1.1-5.57-3.24H230c.39,4,3.79,6.28,8.9,6.28,4.92,0,8.45-2.27,8.45-6.7,0-3.24-1.75-5.21-6.06-6.15L238.36,32c-3-.65-4.46-1.58-4.46-3.49,0-2.21,1.78-3.27,4.59-3.27s4.5,1,4.82,2.81h3.31c-.42-3.59-3.31-5.86-8.13-5.86-5,0-8,2.37-8,6.35,0,3.43,2.21,5.47,6.58,6.41l2.91.65c2.81.61,4,1.71,4,3.36C244,41.21,242,42.48,238.92,42.48Z" fill="#111827"/><polygon points="257.74 45.2 261.14 45.2 261.14 36.56 270.27 22.54 266.42 22.54 259.46 33.35 252.53 22.54 248.65 22.54 257.74 36.59 257.74 45.2" fill="#111827"/><polygon points="276.82 28.37 284.33 41.06 286.85 41.06 294.33 28.4 294.33 45.2 297.76 45.2 297.76 22.51 294.46 22.51 285.62 37.37 276.79 22.51 273.45 22.51 273.45 45.2 276.82 45.2 276.82 28.37" fill="#111827"/><path d="M306.8,37.23h6.25c5.28,0,8.29-3,8.29-7.41s-2.88-7.28-8.22-7.28h-9.71V45.2h3.39Zm0-11.59h5.93c3.4,0,5.11,1.46,5.11,4.21s-1.75,4.28-5.11,4.28H306.8Z" fill="#111827"/><path d="M336.72,45.54a11.68,11.68,0,1,0-.13,0Zm0-20.13a8.45,8.45,0,1,1-8.25,8.65v-.2a8.18,8.18,0,0,1,7.9-8.44h.35Z" fill="#111827"/><path d="M360.73,42.48c-3.24,0-5.28-1.1-5.57-3.24h-3.34c.39,4,3.79,6.28,8.91,6.28,4.91,0,8.44-2.27,8.44-6.7,0-3.24-1.74-5.21-6.05-6.15L360.21,32c-3-.65-4.47-1.58-4.47-3.49,0-2.21,1.78-3.27,4.6-3.27s4.5,1,4.82,2.81h3.3c-.42-3.59-3.3-5.86-8.12-5.86-5,0-8,2.37-8,6.35,0,3.43,2.2,5.47,6.57,6.41l2.91.65c2.82.61,4,1.71,4,3.36C365.74,41.21,363.74,42.48,360.73,42.48Z" fill="#111827"/><rect x="373.85" y="22.54" width="3.43" height="22.66" fill="#111827"/><path d="M386.8,39.54h11.1l2.43,5.67h3.49l-9.9-22.73h-3L381,45.2h3.46Zm5.57-13.11,4.2,10h-8.44Z" fill="#111827"/><path d="M208.72,32.66c.1.83,1,.89,1.66,1.06l-.46.15c.31.38.67-.38,1.14-.23-.12,1.15-1.44,1.37-2.12,2.19.33.3.61,0,1,.22a2.63,2.63,0,0,1-.9,1v.23c.17-.12.25.22.38,0,.06.46.45.31.75.22.36-.56,1-.62,1.36-1,0,.62-.73,1.06-1.13,1.51a8.09,8.09,0,0,0,2.26-1.43c.06.15.22.26.15.45.85,1.22.25,3,.53,4.52l-.08.07a61.1,61.1,0,0,1,0,6.63c-.11.56.23,1.14,0,1.58a2.51,2.51,0,0,1,0,.67l.08.08-.08.07.08.08-.08.08c0,.07,0,.18.08.22a4.28,4.28,0,0,0-.08,1.13l-.09,1.39c.13.78.32.25.32,1.09h1.36l-.08-3.16.08-.07c0-1.72.1-3.53.15-5.27.12-.87-.23-1.66,0-2.48-.16-.19,0-.53-.07-.68a49.61,49.61,0,0,0,0-5.72c.07-.22.17-.63,0-.76,0-.17-.06-.4.07-.52a1.51,1.51,0,0,0,.91.67c.47.06,1.11.55,1.43.16l-.9-1.29c.48-.22.83.38,1.28.46.3.34.81.2,1.21.3v-.15a6.61,6.61,0,0,1-.83-.75c-.06-.31-.46-.55-.31-.83l.31.3A2.76,2.76,0,0,0,221,35c0-.23.06-.49-.08-.68-.73-.21-1.24-1-1.81-1.58.14-.13.37-.06.53-.08,1-.51-.56-.21-.53-.82a3.21,3.21,0,0,0,1.74-.61l-.76-.14a12.88,12.88,0,0,1-2-1,2,2,0,0,1,.91-.15c.11-.35-.34-.1-.31-.38.56-.21,1.27-.18,1.67-.6-.25-.1-.55-.1-.76-.3a4.51,4.51,0,0,0,1.36-.91l-.08-.08a3.8,3.8,0,0,1-2.19-.14,8,8,0,0,0,1.89-1c0-.22.45-.33.23-.53-.58.13-1.13.36-1.74.45l-.07-.07c.3-.18.75-.36.82-.76-.5-.06-1.29.13-1.8-.15l1-1.2c-.43-.14-1.18.07-1.58-.38a1.87,1.87,0,0,1,.83-.22,2.83,2.83,0,0,0,1.21-1.21s-.08-.09-.16-.07a4.48,4.48,0,0,1-1-.38,3.5,3.5,0,0,0,.9-1.28l-1.28.45c-.38,0-.76.28-1.14.08.33-.38.86-.42,1.06-.9a4.37,4.37,0,0,1-1.74-.46c0-.34.44-.09.46-.37-.4-.15-1,0-1.21-.46,0-.11-.17-.22,0-.3l.15.16c.51,0,0-.46.15-.61l.08.08a3.23,3.23,0,0,0,2.49-.53c-.68-.11-1.83,0-2.42-.75.33-.14.82,0,1-.38-.37-.32-.87-.36-1.2-.75a5,5,0,0,0,1.28-.08c.11-.26.78-.36.53-.75-.27.11-.57-.13-.91-.08-.41-.37-1-.44-1.35-.9.37-.3,1-.22,1.2-.67a3.36,3.36,0,0,1-2-1.66c.27-.06.48-.29.76-.3a2.65,2.65,0,0,1,.83.07l.15-.15a4.79,4.79,0,0,1-1.06-1c0-.19-.38-.37-.15-.6.19.19.45.2.68.3-.56-.81-1.52-1.58-1.81-2.56-.16-.3-.13-.81-.45-.9A3.54,3.54,0,0,1,212,9.27c.22.15.41-.23.67-.23,0,.72-.84,1.26-1.28,1.88.22.09.36-.18.53,0a5.34,5.34,0,0,1-1.58,1.73v.16c.25.24.51-.18.75.07a7.63,7.63,0,0,1-1.21,1.2c.38.23,1,.08,1.36.23-.34.45-1.05.35-1.66.38v.22l1.36,1-.68.16a1.27,1.27,0,0,0,.45.82l-.3.15c0,.47.57.38.83.6-.22.32-.73.57-1.05,1-.34.23-.83.4-1,.76.37.16.86,0,1.21.15-.34.39-.87.86-1.43.67,0,.62.6.49.9.83a4.62,4.62,0,0,1-1.28.15,2.5,2.5,0,0,0,.53.83c.21.3.57.34.75.53a1.88,1.88,0,0,1,.91.07l-.6.75c.26.17.64,0,.9.16a5.07,5.07,0,0,1-2,1.58c.21.43.85.39,1.28.6-.19.35-.58.24-.83.45l-1,.82a8.27,8.27,0,0,1,1.26.46l-.23.15c-.22.09-.64.09-.68.3a3.15,3.15,0,0,0,1,.31l-1,1c-.19.09-.45,0-.45.3a1.67,1.67,0,0,0,1.28.3,7.89,7.89,0,0,1,1.14-.07c-.13.35-.68.6-.53,1l.07-.08.08.08c.25,0,.51-.29.75-.08-.43.47-1.21.28-1.58.76l.53.37-.16.15a3.17,3.17,0,0,1-1.5,0c-.16.08,0,.32-.23.3C208.19,32.54,208.59,32.54,208.72,32.66Z" fill="#5bb947" fill-rule="evenodd"/><path d="M197.87,23.09l-.38.24c-.33.26-.45.26.16.38h.91c-.2.44-.74.63-1,1,.49.25,1-.1,1.37-.3,0,.43-.7.58-.3.91a17.48,17.48,0,0,1-1.53,1c0,.32.37.36.54.53l1.29.08c.08-.07.12-.19.23-.16A3.6,3.6,0,0,1,197.48,28l.16.23a.36.36,0,0,0-.32.39.15.15,0,0,0,0,.07c.21.32.63.15.92.3l-1.42,3.18.16-.06h.1c.26,0,.45-.37.67-.22a2.27,2.27,0,0,0-.3,1.65,3,3,0,0,1,1.21-1.2l.15.23a7.7,7.7,0,0,1-.08,1.73h.16a7.76,7.76,0,0,1,1.35-1.51c.25,1.63-.16,3.25.08,4.89l-.08.08c.1,2.18.1,4.4.31,6.55v.83c-.16,1.12-.26,2.25-.31,3.38a23.06,23.06,0,0,1,.15,4.07c.22.45-.15.84.08,1.27a5.75,5.75,0,0,0,0,.83h1.66c0-.09,0-.17.08-.22l.15-16.18L202.22,37l.07-.07c0-.14.06-.3-.07-.38l.07-.07-.07-.08a29.75,29.75,0,0,1,.07-3.38l.15.15c.12,0,.15-.1.23-.15a2,2,0,0,0,.9.52c.23,0,.27.36.46.15l.07.08c.19.16.29,0,.46-.08a3.69,3.69,0,0,0,2.41,0c-.35-.11-.47-.34-.75-.6,0-.1.15-.07.22-.07v-.15h-.07c0-.14-.28-.25-.08-.38a6.77,6.77,0,0,0,1.74.6V33c-.12,0-.15-.1-.23-.15a1.66,1.66,0,0,1-1.21-1.06c.37,0,.76.32,1.21.3-.15-.22-.49-.34-.68-.6s.68-.47.61-1c-.27,0-.46-.25-.68-.37l.22-.23a2.36,2.36,0,0,0,.91-1.58H208a1.68,1.68,0,0,1-1.59.38,7.58,7.58,0,0,0,2-1.51,15.59,15.59,0,0,1-1.79-.53c.13-.1.22-.29.38-.3,0-.13.06-.3-.08-.38a2.31,2.31,0,0,1-1.51-.15.38.38,0,0,1,.38-.15v-.14c-.26,0-.45-.33-.61-.45.18-.14.42-.06.61-.15l-.15-.38.37-.15c.59-.15,1.21-.52,1.29-1.12a3.89,3.89,0,0,1-1.13-.08c-.35-.19-.81-.4-.68-.9l.68-.15c-.27-.37-.89-.16-1.21-.53a2.07,2.07,0,0,0,1.88-.83c-.16,0-.39.05-.52-.07l.68-.68c0-.26.41-.42.15-.68-.17,0-.36.32-.53.15a4,4,0,0,0,1.21-1.58c-1,.39-2.12,1.09-3.32.6.3,0,.64-.26.9-.15a.51.51,0,0,0,.15-.3,3.81,3.81,0,0,1-1.05-.52.71.71,0,0,1,.52-.16c.22.09.15-.13.23-.22-.34-.18-.81-.19-1-.6l.83-.15c-.08-.14-.3-.19-.23-.38.44-.18,1,0,1.44-.15s.83-.64,1-1.13c-.3-.06-.7.13-.91-.15l-.07.08a7.28,7.28,0,0,1-1.29-.76,3.56,3.56,0,0,0,1.44-.53c.06-.13-.08-.21-.15-.3a3,3,0,0,1-1.81-1.88c.26-.23.45.15.67.23.26-.27-.22-.23-.3-.46.42-.18.83.08,1.13-.22l-.52-.38c.36-.28.81.24,1-.15l-.15-.15c-1.26-.26-2.07-1.43-2.72-2.41,0-.1.16-.07.23-.07.23.22.4.16.68.07-.19-.32-.57-.28-.68-.6a.77.77,0,0,1,.53-.15c.1,0,.25,0,.3-.07-.15-.48-.77-.49-1.06-1,.42-.33,1-.29,1.36-.61a3.16,3.16,0,0,1-1.36-.67l.38-.16a3.66,3.66,0,0,1-1.73-1.5c.21-.23.36.12.6,0-.2-.25-.51-.4-.6-.75A4.87,4.87,0,0,1,201.14.08L200.91,0a4.83,4.83,0,0,1-1,2.78l.07.08c.25-.07.52-.33.76-.16-.21.21-.21.51-.31.75l-.68,1.21.61-.15c.11.51-.45.92-.76,1.36-.14,0-.39.22-.37.37.45.12.81-.21,1.13-.15-.35.3-.66.66-1.13.68.09.3.51.45.75.68a4.39,4.39,0,0,1-1.13.3,1,1,0,0,0,.68.67,8,8,0,0,1-1.59.53V9c.18.13.46,0,.61.22-.21.24-.64.13-.83.3.49.32,1.13.28,1.66.53-.32.43-.87.64-1.06,1.06.4.09.76-.18,1.06-.08-.23.2-.42.49-.68.6.51.13,1-.21,1.51-.3,0,0,.1.08.07.15a1.31,1.31,0,0,1-1.28.6l-.23.23-.07-.08-.08.08-.07-.08-.08.08a1.58,1.58,0,0,0,.68.6,2.13,2.13,0,0,1-1.43-.07c.13.22.13.58.45.68-.26.23-.66.14-1,.22v.15c.17.13.38.17.53.38.13-.06.36.09.53.15-.23.35-.76.24-1.13.37.33.61,1.22.19,1.73.53-.28.43-.88,0-1.21.38.1.15.25.15.38.22a4.49,4.49,0,0,0,1.21.08l.07.08c.08,0,.11,0,.16-.08l.07.08.07-.08.08.08.07-.08c.16,0,.35-.06.46.08A3.34,3.34,0,0,1,198,17.39c.15.53.87.19,1.06.61l-.61.45c.23.27.61.24.91.37a2.8,2.8,0,0,1-.76.61c.14.16.4,0,.53.15a3,3,0,0,1-1.89.37l.31.6c.22.55.81.51,1.28.61-.5.45-.92,1.46-1.74,1.54-.13.18-.43.25-.43.43C196.82,23.19,197.77,22.93,197.87,23.09Z" fill="#5bb947" fill-rule="evenodd"/><path d="M183.79,34.18c.35.4,1,.21,1.44.16a4.55,4.55,0,0,0,2.57-.83c.09.3-.47.6-.38.9-.23.49-.72.51-.91.9a1.34,1.34,0,0,0,.91-.22c.07.22-.15.5-.08.83a2.69,2.69,0,0,0,1.59-1.13c.19.28,0,.43.15.75.38,0,.19-.45.45-.6l.15.75c0,3.36-.31,6.77-.3,10.24l-.08,8.71h1.29c0-.06,0-.1-.08-.13l.08-.07a14.58,14.58,0,0,1,.07-2.19l-.07-.07.07-.08c-.09-.52.18-1,.08-1.43.3-1.43,0-3.11.23-4.59l-.08-.08.08-.07c0-.08,0-.19-.08-.23l.08-.07c0-.1.06-.25-.08-.31.3-1.56-.09-3,.23-4.66a46.77,46.77,0,0,1,0-5.8c.4.38.75.85,1.28.91v-.08c-.19,0-.3-.25-.45-.38a2.27,2.27,0,0,1-.23-1.2,2.21,2.21,0,0,1,.75.45c0-.1-.05-.25.08-.3a15.86,15.86,0,0,1,1.29,1.43l.07-.08.07.08c.08,0,.12,0,.16-.08l-.38-.37c0-.29-.45-.48-.23-.75a1.28,1.28,0,0,0,1.13.37c.29,0,.53.08.83-.15a4.23,4.23,0,0,1-1.05-.83,9.19,9.19,0,0,0,1.73-.37c-.52.08-.94-.36-1.2-.76a.35.35,0,0,1,0-.45c.59.54,1.28-.27,1.84-.5l-.86-.62c-.39-.3-.92-.49-1.21-.91.06,0,.15,0,.15-.08s.53.08.69-.15c-.21-.33-.71-.29-1-.61.31-.08.69-.17.84-.45-.15-.31-.55,0-.76-.23s-.66-.25-.84-.53c1.21.15,1.91-.73,2.59-1.52-.36-.27-.89,0-1.37-.08l-.76-.15a1,1,0,0,0,.84-.23l-.38-.38c.4-.19.95-.12,1.21-.46a6.38,6.38,0,0,0-1-.45.42.42,0,0,0,.39-.16c-.27-.3-.65-.32-.92-.6a2.31,2.31,0,0,0,2.24-.74c0-.07.22-.12.22-.19a9.84,9.84,0,0,0-1.09-.14l.84-.38.35-.2a2.62,2.62,0,0,1-1-.16c.22-.15.64-.15.68-.45a3,3,0,0,0-1.29-.76c.27-.32.76-.56,1-1l-.52-.14c.43-.44,1.05-.72,1.13-1.36-.23,0-.45.28-.68.07a6.82,6.82,0,0,0,.75-1.73l-.07-.07a3.58,3.58,0,0,0-.91.52,3.34,3.34,0,0,1-2-.15c.29-.13.51-.36.83-.37a1.6,1.6,0,0,0,.68-.75c-.69.37-1.45,0-2.11-.23l.07-.08c.22-.1.59-.1.61-.3a6.26,6.26,0,0,0,1.51-.75c-.25-.19-.55-.23-.76-.53.29-.28.93,0,1-.53-.32-.14-.72-.14-1-.44a.36.36,0,0,1,.38-.16c.26-.15.68-.25.75-.52-.45-.14-1,0-1.36-.38.46-.68-.71-.25-1-.6.1,0,.08-.15.08-.23-.2-.21-.61-.26-.61-.6.12-.14.31-.06.46-.07.59-.33,1.32-.27,1.88-.61.42-.18.37-.15-.07-.22l-1.13-.15c-.31,0-.45-.44-.83-.31a2.16,2.16,0,0,1-1.36-1.43c.34-.18.77.06,1,0a5.54,5.54,0,0,1-1.51-1.65l.08-.08a1.94,1.94,0,0,0,1.13.23l-.45-.38c-.15-.3-.6-.56-.45-.9a5.21,5.21,0,0,0,1.28.37c0-.29.36,0,.38-.22-.81-.7-1.94-.63-2.64-1.58l-.08.08c-.34-.16-.53-.61-.91-.68a3.06,3.06,0,0,1-1.65,1.2l.07.23-.3.15.07.23c-.16,0-.37.22-.53.07-.15.16-.33,0-.52,0a1.55,1.55,0,0,0,1,1.28c-.24.11-.41.41-.75.3.11.3.45,0,.6.23-.24.46-.71.58-.9,1a3.28,3.28,0,0,0,1,.38,3.29,3.29,0,0,1-1.06.82,2.4,2.4,0,0,1-1.13-.37c-.13.07-.06.24-.08.37-.19.68.63.88,1,1.21.33.15.86,0,1,.38-.2,0-.35.2-.6.14h-1.14c0-.09-.14-.07-.22-.07s-.08.15-.08.23a2.1,2.1,0,0,0,2,1,3.69,3.69,0,0,1-2.19.38c0,.17.34.39.45.53a1.59,1.59,0,0,1-1,.22,3.72,3.72,0,0,0,.75.68l-.9.45c.79.46,1.81.12,2.64,0l.07.08-.37.3.45.22a2.09,2.09,0,0,1-.83.61c-.26.41-.92.41-1.28.6l.15.15a2.33,2.33,0,0,0,2.26.15c0,.73-.84,1-1.28,1.51-.2.09-.58.09-.61.3a2.55,2.55,0,0,1,1,.9c-.61.51-1.36,0-2-.15.07.34.45.54.67.83l-1.05.15.6.53a4.39,4.39,0,0,1-1.13.3c.15.35.75.24,1.13.37l-1.06.83c.71.23,1.36-.11,2.12,0,.15,0,.25.3.38.07.13.36-.36.66-.53,1,.37.13.53-.28.83-.3.07.25-.23.53-.46.75.19.17.53,0,.68.08a5.73,5.73,0,0,1-.75.45c-.87-.09-1.47.47-2.34.38.11.53.68.87,1.13,1.06,0,.33-.47.18-.53.44l1,.23c-.79.51-1.9.43-2.71.76a3.52,3.52,0,0,0,.9.52c0,.09-.15.08-.23.08.08.45.72.07,1,.22l-.53.45c.87.21,1.74-.28,2.64,0l-.38.38a9.09,9.09,0,0,1-2.26.75c.06.28.45.36.68.53-.68.32-1.19,1.05-2,1a1.63,1.63,0,0,0,1.28,1c-.38.34-.88.39-1.28.67,0,0,.1.08.07.16.57,0,1,.3,1.59.3.25,0,.51-.1.68,0A3.79,3.79,0,0,1,183.79,34.18Z" fill="#5bb947"/><polyline points="403.78 53.7 403.78 55.52 0 55.52 0 53.7" fill="#111827" fill-rule="evenodd"/></svg>