<svg width="60" height="60" viewBox="0 0 60 60" fill="none" xmlns="http://www.w3.org/2000/svg">
<rect width="60" height="60" rx="8" fill="#F9FAFB"/>
<path d="M26.3976 19.2002H22.3992C21.5505 19.2002 20.7366 19.5373 20.1365 20.1375C19.5364 20.7376 19.1992 21.5515 19.1992 22.4002V26.3986M33.6008 19.2002H37.5992C38.4479 19.2002 39.2618 19.5373 39.862 20.1375C40.4621 20.7376 40.7992 21.5515 40.7992 22.4002V26.3986M40.7992 33.6018V37.6002C40.7992 38.4489 40.4621 39.2628 39.862 39.8629C39.2618 40.4631 38.4479 40.8002 37.5992 40.8002H33.6008M19.1992 33.6018V37.6002C19.1992 38.4489 19.5364 39.2628 20.1365 39.8629C20.7366 40.4631 21.5505 40.8002 22.3992 40.8002H26.3976M25.9992 30.2002C25.9992 27.991 27.79 26.2002 29.9992 26.2002C32.2084 26.2002 33.9992 27.991 33.9992 30.2002C33.9992 32.4094 32.2084 34.2002 29.9992 34.2002C27.79 34.2002 25.9992 32.4094 25.9992 30.2002Z" stroke="#667085" stroke-linecap="round" stroke-linejoin="round"/>
</svg>
