<svg width="60" height="60" viewBox="0 0 60 60" fill="none" xmlns="http://www.w3.org/2000/svg">
<rect width="60" height="60" rx="8" fill="#F9FAFB"/>
<path d="M39.334 19.333H20.6673C19.9309 19.333 19.334 19.93 19.334 20.6663V27.333C19.334 28.0694 19.9309 28.6663 20.6673 28.6663H39.334C40.0704 28.6663 40.6673 28.0694 40.6673 27.333V20.6663C40.6673 19.93 40.0704 19.333 39.334 19.333Z" stroke="#667085"/>
<path d="M19.334 35.3327C19.334 34.0753 19.334 33.4473 19.7247 33.0567C20.1153 32.666 20.7433 32.666 22.0007 32.666H27.334V37.9993C27.334 39.2567 27.334 39.8847 26.9433 40.2754C26.5527 40.666 25.9247 40.666 24.6673 40.666H22.0007C20.7433 40.666 20.1153 40.666 19.7247 40.2754C19.334 39.8847 19.334 39.2567 19.334 37.9993V35.3327ZM32.6673 32.666H38.0007C39.258 32.666 39.886 32.666 40.2767 33.0567C40.6673 33.4473 40.6673 34.0753 40.6673 35.3327V37.9993C40.6673 39.2567 40.6673 39.8847 40.2767 40.2754C39.886 40.666 39.258 40.666 38.0007 40.666H35.334C34.0767 40.666 33.4487 40.666 33.058 40.2754C32.6673 39.8847 32.6673 39.2567 32.6673 37.9993V32.666Z" stroke="#667085"/>
</svg>
