<svg width="60" height="60" viewBox="0 0 60 60" fill="none" xmlns="http://www.w3.org/2000/svg">
<rect width="60" height="60" rx="8" fill="#F9FAFB"/>
<path d="M30 18C29.0717 18 28.1815 18.3687 27.5251 19.0251C26.8687 19.6815 26.5 20.5717 26.5 21.5C26.5 22.4283 26.8687 23.3185 27.5251 23.9749C28.1815 24.6313 29.0717 25 30 25C30.9283 25 31.8185 24.6313 32.4749 23.9749C33.1313 23.3185 33.5 22.4283 33.5 21.5C33.5 20.5717 33.1313 19.6815 32.4749 19.0251C31.8185 18.3687 30.9283 18 30 18ZM25.5 21.5C25.5 20.3065 25.9741 19.1619 26.818 18.318C27.6619 17.4741 28.8065 17 30 17C31.1935 17 32.3381 17.4741 33.182 18.318C34.0259 19.1619 34.5 20.3065 34.5 21.5C34.5 22.6935 34.0259 23.8381 33.182 24.682C32.3381 25.5259 31.1935 26 30 26C28.8065 26 27.6619 25.5259 26.818 24.682C25.9741 23.8381 25.5 22.6935 25.5 21.5ZM20 21C19.2044 21 18.4413 21.3161 17.8787 21.8787C17.3161 22.4413 17 23.2044 17 24C17 24.7956 17.3161 25.5587 17.8787 26.1213C18.4413 26.6839 19.2044 27 20 27C20.7956 27 21.5587 26.6839 22.1213 26.1213C22.6839 25.5587 23 24.7956 23 24C23 23.2044 22.6839 22.4413 22.1213 21.8787C21.5587 21.3161 20.7956 21 20 21ZM16 24C16 22.9391 16.4214 21.9217 17.1716 21.1716C17.9217 20.4214 18.9391 20 20 20C21.0609 20 22.0783 20.4214 22.8284 21.1716C23.5786 21.9217 24 22.9391 24 24C24 25.0609 23.5786 26.0783 22.8284 26.8284C22.0783 27.5786 21.0609 28 20 28C18.9391 28 17.9217 27.5786 17.1716 26.8284C16.4214 26.0783 16 25.0609 16 24ZM37 24C37 23.2044 37.3161 22.4413 37.8787 21.8787C38.4413 21.3161 39.2044 21 40 21C40.7956 21 41.5587 21.3161 42.1213 21.8787C42.6839 22.4413 43 23.2044 43 24C43 24.7956 42.6839 25.5587 42.1213 26.1213C41.5587 26.6839 40.7956 27 40 27C39.2044 27 38.4413 26.6839 37.8787 26.1213C37.3161 25.5587 37 24.7956 37 24ZM40 20C38.9391 20 37.9217 20.4214 37.1716 21.1716C36.4214 21.9217 36 22.9391 36 24C36 25.0609 36.4214 26.0783 37.1716 26.8284C37.9217 27.5786 38.9391 28 40 28C41.0609 28 42.0783 27.5786 42.8284 26.8284C43.5786 26.0783 44 25.0609 44 24C44 22.9391 43.5786 21.9217 42.8284 21.1716C42.0783 20.4214 41.0609 20 40 20ZM24 30.5C24 29.837 24.2634 29.2011 24.7322 28.7322C25.2011 28.2634 25.837 28 26.5 28H33.5C34.163 28 34.7989 28.2634 35.2678 28.7322C35.7366 29.2011 36 29.837 36 30.5V36C36 37.5913 35.3679 39.1174 34.2426 40.2426C33.1174 41.3679 31.5913 42 30 42C28.4087 42 26.8826 41.3679 25.7574 40.2426C24.6321 39.1174 24 37.5913 24 36V30.5ZM26.5 29C26.1022 29 25.7206 29.158 25.4393 29.4393C25.158 29.7206 25 30.1022 25 30.5V36C25 37.3261 25.5268 38.5979 26.4645 39.5355C27.4021 40.4732 28.6739 41 30 41C31.3261 41 32.5979 40.4732 33.5355 39.5355C34.4732 38.5979 35 37.3261 35 36V30.5C35 30.1022 34.842 29.7206 34.5607 29.4393C34.2794 29.158 33.8978 29 33.5 29H26.5ZM23.09 29.707C23.0299 29.967 22.9997 30.2331 23 30.5V30.767L18.112 32.077C17.7281 32.1801 17.4008 32.4314 17.2021 32.7757C17.0033 33.1199 16.9494 33.529 17.052 33.913L17.958 37.294C18.1428 37.9841 18.4733 38.6266 18.9274 39.1782C19.3814 39.7298 19.9483 40.1777 20.59 40.4917C21.2317 40.8057 21.9333 40.9786 22.6474 40.9986C23.3615 41.0187 24.0717 40.8855 24.73 40.608C24.9653 40.8767 25.2197 41.1263 25.493 41.357C24.6967 41.7594 23.8207 41.9792 22.9287 42.0003C22.0368 42.0214 21.1513 41.8433 20.3369 41.479C19.5224 41.1147 18.7995 40.5733 18.2207 39.8944C17.6419 39.2154 17.2218 38.4158 16.991 37.554L16.086 34.172C16.001 33.8549 15.9793 33.5241 16.0222 33.1986C16.065 32.873 16.1716 32.5591 16.3358 32.2748C16.5 31.9905 16.7185 31.7412 16.979 31.5414C17.2395 31.3415 17.5368 31.1949 17.854 31.11L23.09 29.707ZM34.507 41.357C34.869 41.539 35.2537 41.6853 35.661 41.796C37.1981 42.2077 38.8357 41.992 40.2137 41.1963C41.5917 40.4006 42.5972 39.09 43.009 37.553L43.915 34.173C44.0867 33.5326 43.997 32.8503 43.6656 32.2761C43.3342 31.7019 42.7883 31.2828 42.148 31.111L36.91 29.707C36.97 29.9623 37 30.2267 37 30.5V30.767L41.889 32.077C42.2729 32.1801 42.6002 32.4314 42.7989 32.7757C42.9977 33.1199 43.0516 33.529 42.949 33.913L42.044 37.294C41.8592 37.9844 41.5287 38.6271 41.0745 39.1789C40.6203 39.7306 40.0532 40.1787 39.4112 40.4927C38.7693 40.8068 38.0675 40.9796 37.3531 40.9994C36.6388 41.0193 35.9284 40.8859 35.27 40.608C35.0347 40.876 34.7803 41.1263 34.507 41.357Z" fill="#667085"/>
</svg>
